<svg xmlns="http://www.w3.org/2000/svg" width="24" height="24" viewBox="0 0 24 24" fill="none">
<path d="M20.8615 9.04616C21.0452 9.0465 21.2221 9.11524 21.3578 9.23898C21.4935 9.36272 21.5782 9.53257 21.5954 9.71539V20.1231C21.5937 20.6936 21.3729 21.2416 20.9786 21.6539C20.5843 22.0662 20.0467 22.3112 19.4769 22.3385H4.61538C4.04492 22.3368 3.49691 22.1159 3.0846 21.7217C2.6723 21.3274 2.42722 20.7898 2.4 20.22V9.78462C2.40034 9.60099 2.46908 9.42407 2.59282 9.28839C2.71656 9.1527 2.88641 9.06799 3.06923 9.05078H20.8615V9.04616ZM20.8615 1.66154C21.4487 1.66276 22.0115 1.89656 22.4267 2.31176C22.8419 2.72696 23.0757 3.28975 23.0769 3.87693V6.09231C23.0769 6.28817 22.9991 6.476 22.8606 6.61448C22.7221 6.75297 22.5343 6.83078 22.3385 6.83078H1.66154C1.46569 6.83078 1.27786 6.75297 1.13937 6.61448C1.00088 6.476 0.923077 6.28817 0.923077 6.09231V3.87693C0.924296 3.28975 1.15809 2.72696 1.57329 2.31176C1.9885 1.89656 2.55128 1.66276 3.13846 1.66154H20.8615Z" fill="#98a2b3"/>
</svg>