<svg width="19" height="21" viewBox="0 0 19 21" fill="none" xmlns="http://www.w3.org/2000/svg">
<path d="M10.9008 0.000309209L12.6453 5.31763L18.8487 5.31724L17.5973 1.49966C17.3005 0.627468 16.4747 0.000365428 15.5025 0.000365428L10.9008 0.000309209ZM9.74413 0.000309209L9.25627 0.000758967L7.51207 5.31771L11.488 5.31766L9.74413 0.000309209ZM3.48856 0C2.5168 0 1.6994 0.627678 1.40265 1.49955L0.151217 5.31735L6.3547 5.31819L8.10049 0.00222068L3.51319 0H3.4896C3.48925 0 3.4889 0 3.48856 0ZM11.6261 6.41746L7.37374 6.41754V10.0038L9.09991 9.00812C9.16472 8.9708 9.23403 8.93981 9.30972 8.93981L9.68406 8.93891C9.68425 8.93891 9.68443 8.93891 9.68463 8.93891C9.75977 8.93891 9.82825 8.96727 9.88761 9.00148L11.6261 10.0042V6.41746ZM3.28842 14.4754L6.99472 14.4765C7.19655 14.4766 7.36019 14.6401 7.36037 14.842L7.36071 15.2141C7.36079 15.3112 7.3223 15.4043 7.25367 15.473C7.18507 15.5416 7.09198 15.5802 6.99495 15.5807L3.28812 15.5791C3.19103 15.5791 3.09794 15.5404 3.02936 15.4718C2.96076 15.4031 2.92233 15.3099 2.92247 15.2128L2.92303 14.8406C2.92335 14.6388 3.08662 14.4754 3.28842 14.4754ZM3.28873 16.6064L9.16593 16.6082C9.36777 16.6082 9.5314 16.7717 9.53158 16.9736L9.53192 17.3457C9.532 17.4428 9.4935 17.5359 9.42488 17.6046C9.35627 17.6732 9.26319 17.7118 9.16615 17.7123L3.28827 17.7101C3.19118 17.71 3.09809 17.6714 3.0295 17.6027C2.96091 17.534 2.92247 17.4408 2.92261 17.3437L2.92317 16.9716C2.92348 16.7698 3.08694 16.6064 3.28873 16.6064ZM11.1462 16.6081L11.5244 16.6082C11.7263 16.6083 11.8899 16.7718 11.8901 16.9736L11.8904 17.3457C11.8905 17.4428 11.852 17.5359 11.7834 17.6046C11.7148 17.6732 11.6217 17.7118 11.5247 17.7123L11.1466 17.7117C11.0495 17.7117 10.9564 17.673 10.8878 17.6043C10.8193 17.5357 10.7808 17.4425 10.781 17.3454L10.7815 16.9733C10.7818 16.7715 10.9444 16.6081 11.1462 16.6081ZM19 6.41701L12.7265 6.41824V11.0629C12.7265 11.2647 12.5631 11.4283 12.3613 11.4286C11.9953 11.4292 11.9921 11.4292 11.9921 11.4292C11.9284 11.4292 11.8653 11.4126 11.8092 11.3802L9.49956 10.0471L7.19068 11.3801C7.13457 11.4125 7.07142 11.4291 7.00775 11.4291L6.63858 11.4286C6.43678 11.4283 6.27332 11.2647 6.27332 11.0629V6.41757L0 6.41763L1.40549e-05 18.2425C0.00604268 19.4593 0.994311 20.4432 2.21244 20.4432L16.7876 20.4433C18.0057 20.4433 18.994 19.4594 19 18.2425V6.41701Z" fill="#98A2B3"/>
</svg>
